<svg version="1.0" xmlns="http://www.w3.org/2000/svg"
 width="50.000000pt" height="50.000000pt" viewBox="0 0 50.000000 50.000000"
 preserveAspectRatio="xMidYMid meet">

<g transform="translate(0.000000,50.000000) scale(0.100000,-0.100000)"
fill="#000000" stroke="none">
<path d="M175 467 c-51 -21 -80 -45 -106 -89 -20 -36 -24 -56 -24 -129 0 -78
3 -90 30 -134 41 -67 89 -90 182 -90 49 0 74 -4 78 -12 4 -13 95 -19 95 -7 0
3 -9 19 -21 35 l-21 29 25 29 c82 98 50 299 -57 355 -47 24 -138 31 -181 13z
m161 -26 c67 -30 104 -102 104 -201 0 -46 -28 -120 -57 -152 -14 -16 -14 -20
1 -43 16 -24 16 -25 -9 -25 -14 0 -28 7 -31 15 -5 11 -18 13 -65 8 -104 -11
-177 34 -208 126 -22 68 -8 168 32 225 43 61 153 83 233 47z"/>
<path d="M184 391 c-60 -36 -81 -147 -45 -228 22 -48 62 -73 116 -73 39 0 44
13 19 48 -14 21 -14 22 11 22 14 0 28 -7 31 -15 18 -47 64 31 64 108 -1 122
-104 194 -196 138z m122 -20 c40 -24 58 -77 51 -143 -7 -59 -15 -74 -30 -59
-12 12 -97 15 -97 4 0 -5 7 -17 15 -27 29 -39 8 -48 -46 -20 -78 40 -78 207 0
249 36 20 70 18 107 -4z"/>
</g>
</svg>
